<svg id="Layer_1" height="512" viewBox="0 0 141.2736 220.8407" width="512" xmlns="http://www.w3.org/2000/svg"><g><ellipse cx="110.604" cy="22.504" rx="22.5" ry="22.5" transform="matrix(.392 -.92 .92 .392 46.555 115.443)"/><path d="m61.8594 159.3861-36.166 10.2598c-6.6416 1.8838-10.498 8.7949-8.6143 15.4365 1.5605 5.502 6.5703 9.0918 12.0186 9.0918 1.1299 0 2.2783-.1543 3.418-.4775l47-13.333c6.1572-1.7471 10.001-7.8623 8.9043-14.168l-3.1414-18.059-28.7913-19.6324z"/><path d="m55.5656 125.0922 45.9805 31.353 15.1719 55.2051c1.5244 5.5483 6.5576 9.1909 12.0459 9.1904 1.0957 0 2.2109-.145 3.3193-.4497 6.6562-1.8296 10.5703-8.709 8.7402-15.3657l-16.3887-59.6333c-.7852-2.8584-2.5615-5.3447-5.0107-7.0151l-39.8281-27.1577c.0006-.0049.0016-.0098.0023-.0146-1.6632-.084-3.2646-.5587-4.6946-1.4019-1.8083.4171-3.7781.8358-5.6594 1.2349-8.9219 1.8945-14.916 3.2744-16.8799 5.124-3.7432 3.5234-6.7822 9.3047-9.0303 17.1826-1.6748 5.8623-8.0605 5.8838-13.6943 5.9023h-.1367c-7.8701 0-13.7168 3.002-17.7793 9.1533l-1.1738-7.9336-5.7422 1.9854c6.5898-10.0693 17.4102-10.0547 24.7197-10.0352 2.6855.002 5.4053-.0254 6.6162-.4727l.5293-.1963.1689-.5371c1-3.1738 3.9248-7.3076 8.6934-12.2891l.374-.3906-.0625-.5391c-.1934-1.6357-.4385-3.0361-.6357-4.1602-.5254-3.001-.5977-3.9189.1152-4.5908l24.7104-6.2598c-.0813-.4013-.1436-.8083-.1771-1.2222l-3.5234-43.3765c-.2227-2.7422.6357-5.4067 2.417-7.5029 1.7812-2.0967 4.2725-3.374 7.0146-3.5967.2832-.0234.5693-.0352.8516-.0352 5.3154 0 9.8174 4.1587 10.248 9.4673l1.0565 13.0071c2.2383-2.8807 5.0881-5.6125 8.4417-7.7646 2.5542-8.4135.6399-17.9111-6.1202-21.1501-3.9336-1.8838-9.124-2.3262-14.3193-.6729l-33.711 7.2829c-1.252.271-2.4209.8384-3.4082 1.6548l-34.3487 28.4038c-3.4053 2.8154-3.8828 7.8584-1.0674 11.2632 1.582 1.9131 3.8672 2.9023 6.1699 2.9019 1.7949 0 3.6016-.6011 5.0928-1.835l32.8467-27.1611 9.334-2.0166c-7.3926 14.312-10.5488 26.2007-12.1807 45.0083-.005.4807.0118.9356.0248 1.395l-.4106.104-.1904.1494c-.9335.7296-1.3662 1.564-1.5112 2.554-.176 1.2006.072 2.6306.3804 4.3893.1787 1.0205.3779 2.1611.5498 3.499-4.5098 4.7676-7.4121 8.8584-8.6367 12.1768-1.3086.2217-4.0576.2168-5.3271.2119-7.9473-.0098-21.2959-.041-28.2705 13.9082l-1.2619 2.5234 8.6807-3.001 1.7861 12.0742 1.6318-3.2637c3.6875-7.375 9.2178-10.8096 17.4346-10.8096l.1143-.001c5.8018-.0195 13.748-.0459 15.8975-7.5713 1.2183-4.266 2.5865-7.5348 3.9392-10.0488.3939-.7319.7856-1.3988 1.1727-2.0067 1.4806 1.3274 3.1458 2.3627 4.9087 3.1729z"/><path d="m126.1772 72.6542c1.8837-3.6414 2.5261-6.8915 1.8118-8.4352-.7151-1.5448-3.606-3.1633-7.6056-4.0836z"/><path d="m88.7603 80.0185.5874 7.2305c.2366.0919.4802.1811.7312.2677l1.9095-.5234z"/><path d="m88.3676 72.9951 6.1569 13.3032 27.4287-7.5175c.9863-1.1243 1.8596-2.2725 2.6194-3.4196l-7.2966-15.7654c-4.9084-.5832-10.8422-.0979-16.408 2.478v.0001c-5.5738 2.5795-9.7686 6.7962-12.5004 10.9212zm10.2012 4.0318 1.4922-.6906-.8542-1.8456c-.1702-.3676-.0099-.8034.3574-.9734.3674-.17.8033-.0101.9735.3575l.8541 1.8456 2.2927-1.0611-.8541-1.8456c-.1702-.3676-.0099-.8034.3575-.9734.3673-.17.8032-.0101.9734.3575l.8542 1.8456 2.2931-1.0613-.8541-1.8456c-.1702-.3676-.01-.8034.3574-.9734s.8032-.0101.9734.3575l.8542 1.8456 2.2927-1.0611-.8542-1.8456c-.1702-.3676-.0099-.8034.3574-.9734.3674-.17.8035-.0101.9735.3574l.8541 1.8456 1.4922-.6906c.3674-.17.8032-.0101.9734.3575s.01.8034-.3574.9734l-1.4921.6906.8542 1.8458c.17.3676.0099.8034-.3575.9734s-.8032.0101-.9734-.3575l-.8542-1.8458-2.2927 1.0611.8542 1.8458c.1702.3676.0099.8034-.3574.9734-.3674.17-.8033.0101-.9735-.3575l-.8542-1.8458-2.2931 1.0613.8542 1.8458c.17.3676.0098.8034-.3575.9734s-.8033.0101-.9735-.3574l-.8542-1.8458-2.2927 1.0611.8542 1.8458c.1702.3676.01.8034-.3574.9734s-.8032.0101-.9734-.3575l-.8542-1.8458-1.4922.6906c-.3674.17-.8032.0101-.9734-.3575s-.01-.8033.3574-.9734z"/><path d="m87.3175 90.6586-2.7422-33.7578c-.3574-4.4033-4.2266-7.6899-8.6211-7.3257-4.4043.3574-7.6836 4.2178-7.3262 8.6211l3.5234 43.3765c.1924 2.3735 1.4326 4.5376 3.3838 5.9043 1.3584.9521 2.9648 1.4478 4.5898 1.4478.707 0 1.4189-.0938 2.1143-.2847l44.5869-12.2202c4.2617-1.168 6.7695-5.5688 5.6016-9.8301-1.1689-4.2612-5.5732-6.769-9.8301-5.6006z"/></g></svg>